<?xml version="1.0" encoding="utf-8"?>
<!-- Generator: Adobe Illustrator 14.0.0, SVG Export Plug-In . SVG Version: 6.00 Build 43363)  -->
<!DOCTYPE svg PUBLIC "-//W3C//DTD SVG 1.1//EN" "http://www.w3.org/Graphics/SVG/1.1/DTD/svg11.dtd">
<svg version="1.1" id="Ebene_1" xmlns="http://www.w3.org/2000/svg" xmlns:xlink="http://www.w3.org/1999/xlink" x="0px" y="0px"
	 width="595.28px" height="841.89px" viewBox="0 0 595.28 841.89" enable-background="new 0 0 595.28 841.89" xml:space="preserve">
<g opacity="0.35">
	<path fill="#708423" d="M414.72,384.449h11.031c-6.395-0.656-15.184,15.688-17.732,35.988c-2.551,20.299,0.871,36.87,7.268,37.526
		h-11.672c-11.74-1.205-9.803-17.844-7.18-38.714C398.983,398.949,406.944,384.493,414.72,384.449z"/>
</g>
<g opacity="0.35">
	<path fill="#708423" d="M436.633,384.449h11.031c-6.395-0.656-19.745,15.688-22.294,35.988c-2.551,20.299,0.873,36.87,7.269,37.526
		h-11.671c-11.74-1.205-9.803-17.844-7.18-38.714C416.337,398.949,428.856,384.493,436.633,384.449z"/>
</g>
<g opacity="0.35">
	<path fill="#667522" d="M396.62,384.429h11.027c-6.043-0.619-13.842,15.212-16.25,34.391c-2.41,19.18,2.855,34.827,8.898,35.446
		h-11.027c-6.041-0.619-11.225-17.389-8.814-36.569C382.862,398.518,389.272,384.47,396.62,384.429z"/>
</g>
<g opacity="0.35">
	<path fill="#566321" d="M377.292,388.113h11.027c-6.027-0.484-12.801,13.64-15.43,30.867c-2.633,17.227,0.955,31.133,6.98,31.62
		h-11.027c-6.025-0.486-9.502-15.271-6.869-32.499C364.624,400.738,369.597,388.113,377.292,388.113z"/>
</g>
<g>
	<path fill="#C8D445" d="M425.478,384.449H414.45c6.049-0.688,11.996,15.975,14.291,36.145c2.297,20.17-0.889,36.68-6.939,37.37
		h11.028c6.049-0.689,9.166-18.447,6.869-38.618C437.402,399.175,432.83,384.449,425.478,384.449z"/>
</g>
<g>
	<path fill="#B5C51C" d="M407.647,384.429H396.62c6.049-0.688,11.996,15.975,14.291,36.144c2.297,20.171-0.889,36.681-6.939,37.369
		h11.027c6.049-0.688,9.166-18.445,6.869-38.616C419.573,399.156,414.999,384.429,407.647,384.429z"/>
</g>
<path fill="#93A621" d="M390.913,388.113c0.008,0-11.033,0-11.025,0c7.35,0,12.32,14.438,14.387,32.59
	c2.066,18.155,0.441,32.944-5.006,33.563c0,0,11.021,0.002,11.027,0c5.447-0.619,7.002-16.656,4.936-34.809
	C403.075,400.525,394.886,388.113,390.913,388.113z"/>
<g>
	<g>
		<path fill="#686868" d="M148.773,455.576h0.019c-0.006,0-0.013-0.002-0.019-0.002V455.576z"/>
		<g>
			<path fill="#686868" d="M297.664,401.833c2.602,0,4.711-2.109,4.711-4.712c0-0.92-0.273-1.771-0.729-2.497l15.594-2.215h-19.577
				c-2.602,0-4.711,2.109-4.711,4.712S295.062,401.833,297.664,401.833z"/>
		</g>
	</g>
	<g>
		<path fill="#686868" d="M364.017,434.221l-0.105-0.021c-0.678,2.811-2.73,6.715-8.911,6.715c-8.656,0-9.215-6.414-9.238-7.67
			v-1.477l25.129,0.033v-3.328c0-5.496-3.321-15.892-15.891-15.892c-10.269,0-14.363,5.429-15.518,10.966
			c-1.568-5.195-5.802-10.905-15.118-10.905c-3.919,0-6.938,1.012-9.239,2.568v-2.152l3.365-0.478h-3.365h-6.65h-7.485h-2.076
			h-4.576v10.914c-3.225-8.415-12.51-10.852-17.886-10.852h-4.528v-15.508l19.222-2.731h-19.222v-0.001h-6.651v18.24h-4.527h-6.281
			h-22.173v19.012c-0.019,1.547-0.552,9.26-9.24,9.26c-8.688,0-9.221-7.713-9.24-9.24v-16.521l17.928-2.547h-19.577v0.025
			l-25.052,0.174v-15.651l19.368-2.751h-19.368h-0.208h-6.443v37.271c0,12.57,10.395,15.891,15.891,15.891h3.141v-6.65h-3.122
			c-1.546-0.02-9.259-0.553-9.259-9.24v-12.216l20.049-0.141v12.357c0,0.402,0.053,4.033,1.921,7.77
			c2.618,5.238,7.58,8.121,13.97,8.121c12.57,0,15.891-10.395,15.891-15.891v-12.38h9.86c-1.43,2.283-2.376,5.296-2.376,9.24v18.979
			h6.651v-18.979c0-8.658,6.413-9.216,7.669-9.24h4.527l0.007,28.271h11.172c5.438,0,14.873-2.496,17.992-11.148
			c0.633,4.971,4.223,11.148,12.643,11.148h8.038v-19.053c0.004-1.031,0.315-9.218,9.239-9.218c8.687,0,9.221,7.712,9.239,9.24
			v19.031h6.651v-9.031c1.767,4.297,5.921,9.031,14.745,9.031c9.653,0,13.844-6.129,15.272-11.463l13.235-1.881H364.017z
			 M355,419.232c5.613,0,7.822,3.221,8.688,5.911l-17.367-0.018C347.191,422.434,349.403,419.232,355,419.232z M276.452,440.914
			h-4.528v-21.621h4.515c1.269,0.01,12.394,0.396,12.394,10.81C288.833,440.52,277.708,440.904,276.452,440.914z M308.474,428.525
			c0,0.002,0,0.004,0,0.008v12.381h-1.387c-5.563,0-6.073-4.688-6.098-6.098v-19.75l7.485-1.063L308.474,428.525z"/>
	</g>
</g>
<path fill="#7E9225" d="M370.612,391.789h-11.027c4.842-0.551,14.92,12.883,16.758,29.018c1.838,16.137-2.656,29.243-7.5,29.793
	h11.027c0.006-0.002,0.01,0,0.018-0.002c4.844-0.551,8.883-14.859,7.045-30.997C385.095,403.465,375.454,391.238,370.612,391.789z"
	/>
</svg>
